<svg xmlns="http://www.w3.org/2000/svg"  viewBox="0 0 100 100" width="200px" height="200px"><path fill="#e3e2e3" d="M50,89.001c12.976-5.154,32-18.804,32-64.413C65.737,14.205,52.071,11.001,50,11.001 c-2.071,0-15.737,3.204-32,13.587C18,70.198,37.024,83.848,50,89.001z"/><path fill="#f05b6c" d="M77.74,26.647c-14.222-8.662-25.634-11.419-27.697-11.637c-0.035-0.004-0.07-0.004-0.105,0 c-2.063,0.218-13.474,2.975-27.697,11.637c-0.152,0.092-0.243,0.258-0.24,0.435c0.292,18.155,3.813,32.52,10.464,42.693 c4.405,6.738,10.071,11.58,17.323,14.803c0.065,0.028,0.134,0.043,0.203,0.043s0.138-0.015,0.203-0.043 c7.252-3.223,12.918-8.064,17.322-14.803c6.651-10.173,10.172-24.537,10.464-42.693C77.983,26.905,77.892,26.739,77.74,26.647z"/><path fill="#fff" d="M50.257,74.07c-0.289,0.511-1.608,1.066-1.881,1.892c-0.013-1.004,0.053-2.221,0.943-2.852 C49.984,72.639,50.538,73.575,50.257,74.07z M67.232,54.308c-0.324-1.072-0.945-1.702-1.513-1.89 c-1.841-0.611-3.38-0.185-5.995-0.262c-1.941-0.057-4.297-0.844-4.386-3.793c-0.735,2.027,0.861,3.614,1.883,3.934 c0.905,0.284,0.834,1.092,0.793,1.199c-0.212,0.549-1.193,0.624-2.19,0.172c-1.168-0.529-2.09-2.003-2.561-2.937 c0.662,2.402,2.265,3.775,4.227,4.406c0.781,0.251,2.586,0.329,4.52-0.193c-1.629-0.13-2.363-0.233-2.946-0.769 c-0.354-0.324-0.286-1.042-0.078-1.255c0.169-0.173,0.676,0.098,1.554,0.042c2.086-0.13,3.614,0.198,4.313,0.808 c0.693,0.606,1.066,1.286,1.084,2.249c0.048,2.586-1.918,5.939-3.554,8.52c-1.296,2.312-2.465,3.218-4.781,4.208 c-1.815,0.776-3.839,1.093-6.129,1.224h-0.92c-2.408,0-4.614-0.505-5.857-2.789c-1.28-2.352-1.233-5.566-0.787-8.198 c-0.464,0.097-1.148,1.347-3.424,1.34c-1.099-0.004-1.97-0.719-1.963-1.505c0.009-0.956,1.3-1.869,2.167-1.848 c0.745,0,1.194,0.712,1.208,1.066c0.005,0.144-0.318,0.563-0.937,0.563c-0.576-0.03-0.767-0.442-0.971-0.76 c-0.704,1.968,2.514,2.367,3.59,0.543c0.617-1.045,0.529-2.423-0.257-3.163c-1.093-1.033-4.117-0.49-4.884,1.361 c-0.277,0.641-0.394,1.244-0.776,1.933c-0.184,0.332-0.903,1.473-1.022,1.603c1.102,0.065,2.232,0.688,2.259,1.832 c0.021,0.868-0.56,1.126-0.552,2.137c0.011,1.18,1.165,1.717,1.888,2.375c0.945,0.861,1.321,1.521,1.284,2.132 c-0.112,1.871,1.851,1.367,3.369,2.116c1.903,0.939,0.115,2.841,4.001,1.83c1.174-0.305,2.404,0.77,3.844,0.69 c1.22-0.067,2.689-1.66,4.104-2.277c1.733-0.758,3.501-0.3,4.641-1.656c0.808-1.024,0.753-2.32,1.862-4.384 c0.987-1.838,1.821-1.644,2.405-3.131c0.353-0.9,0.771-2.789,0.96-3.563c0.218-0.894,1.051-1.199,1.022-2.35 C67.715,55.417,67.411,54.901,67.232,54.308z M43.982,70.965c-0.62,0.161-1.515,1.839-1.606,3.148 c0.586-0.828,1.586-1.11,2.526-1.853C45.382,71.88,45.094,70.674,43.982,70.965z M56.533,71.864 c-0.031,0.856,1.11,1.948,1.609,2.125c-0.629-0.899-0.249-2.054-0.563-2.45C57.277,71.16,56.533,71.231,56.533,71.864z M64.2,65.833c0.608,0.042,1.213-0.019,1.796-0.353c-0.883,0.024-1.508-0.679-1.923-0.679C63.361,64.806,63.388,65.776,64.2,65.833 z M40.331,67.316c-0.784,0.005-2.23,1.668-2.442,2.86c0.69-0.813,2.471-0.927,2.927-1.373 C41.272,68.357,41.116,67.311,40.331,67.316z M32.391,38.723c0.544-1.2,1.593-2.467,2.689-3.227 c-0.342,0.029-0.906,0.439-1.19,0.439c-0.653,0-0.361-2.094,0.103-2.146c0.151-0.016,0.167,0.122,0.353,0.115 c0.426-0.015,0.759-0.511,0.767-0.84c0.013-0.642-0.817-1.826-1.396-2.044c0.439,0.541,0.879,1.218,0.448,1.594 c-0.218,0.19-0.539-0.253-0.837-0.204c-0.682,0.11-0.558,2.608-0.766,2.621c-0.315,0.02-0.962-2.572-0.697-2.853 c0.147-0.155,0.401,0.023,0.517-0.065c0.157-0.12-0.152-0.957-0.677-1.487c-0.565-0.571-1.372-0.769-1.875-0.577 c0.526,0.048,1.414,0.389,1.415,0.776c0.002,0.615-0.612,0.4-0.524,1.891c0.058,0.996,0.535,1.45,0.772,2.058 c0.118,0.307,0.184,0.57,0.087,0.753c-0.081,0.153-0.472-0.058-0.867-0.312c-0.476-0.306-1.017-0.75-1.087-1.429 c-0.036-0.348-0.519-0.932-1.116-1.228c-0.675-0.336-1.506-0.454-1.993-0.129c0.906-0.055,1.826,0.275,1.999,0.908 c0.091,0.335,0.01,1.183,0.107,1.37c0.161,0.307,0.551,0.165,0.882,0.563c0.331,0.398,0.46,0.751,0.832,1.069 C31.545,37.368,32.869,36.752,32.391,38.723z M37.316,61.08c-1.081-0.024-2.57,2.492-2.591,3.459 c0.786-0.967,1.979-1.03,2.88-1.532C38.424,62.551,38.507,61.107,37.316,61.08z M69.796,38.463 c-0.384-0.689-0.889-1.575-1.283-1.48c-0.134,0.976-0.322,2.051-1.236,2.966c0.11-0.784,0.201-1.46-0.011-2.021 c-0.38,0.17-0.898,0.643-2.068,0.745c0.358-0.237,0.951-0.777,0.812-1.043c-0.349-0.664-2.473-0.409-3.071,0.076 c-0.044-0.387-0.111-0.761-0.181-1.108c-0.446,0.036-1.568,0.055-1.625,0.665c-0.048,0.512,0.776,0.977,1.313,1.072 c0.759,0.167,1.015,0.31,1.26,1.055c0.089-0.352,0.25-0.484,0.238-0.759c0.473,0.701,0.802,1.739,1.074,2.463 c0.4,0.008,0.68-0.106,0.956-0.497c0.158-0.225,0.171-0.632,0.276-0.744c0.065,0.548,0.049,0.896-0.095,1.42 c0.151-0.04,0.325-0.179,0.501-0.339c0.017,1.287-0.752,2.535-2.149,2.731c1.023-1.647-0.227-1.515-2.912-1.661 c0.155-0.138,0.456-0.17,0.794-0.286c0.462-0.159,0.898-0.394,0.929-0.737c0.022-0.238-0.486-0.513-0.893-0.785 c-0.754-0.504-1.164-0.779-1.806-0.516c-0.7-0.624-1.53-0.662-2.156-0.4c-0.22,0.02-0.465-0.003-0.654,0.114 c-0.454,0.28-0.839,0.722-1.798,1.313c-3.004,1.857-6.688,2.485-9.472,2.625c-0.722,0.037-1.458-0.001-2.204,0.02 c-0.9,0.025-1.596,0.239-1.636,0.586c-0.029,0.253,0.16,0.463,0.347,0.63c3.535,3.168,9.816,2.548,14.43,0.27 c-6.528,4.706-14.739,1.568-16.245,0.745c-0.521-0.284-0.81-0.277-1.052-0.083c-0.247,0.198-0.299,0.531-0.105,1.089 c0.324,0.933,0.591,1.428,0.82,1.889c1.097,2.222,2.926,4.152,5.078,4.806c-4.039-0.912-6.407-4.251-7.473-7.811 c-0.076,1.676,0.457,3.414,1.148,4.763c1.35,2.632,2.43,3.005,3.199,4.224c-1.761-0.394-3.441-0.029-4.231,0.953 c-0.798,0.99-1.035,2.825-1.801,3.611c-0.337-0.973-0.887-2.054-1.24-3.292c-1.279-4.481-1.361-8.917,0.403-12.632 c1.586-3.341,3.37-6.366,8.807-7.568c-1.513,1.291-4.454,3.76-4.413,5.062c0.05,1.593,1.574-0.596,1.841-0.83 c1.388,4.631,12.085,2.17,15.036-0.496c-0.331-0.125-1.507-0.89-1.666-1.956c-0.26-1.76,1.633-2.136,2.754-2.281 c-1.664-0.927-3.258,0.324-3.531,1.481c-5.563-3.724-13.832-1.978-17.757,3.04c-4.861,6.215-3.728,14.07-0.83,18.645 c-2.415-1.995-3.817-5.243-4.313-6.587c-0.337-0.911-0.471-1.465-0.615-1.426c-0.235,0.063-0.496,0.979-0.496,1.348 c-1.512-2.247,1.575-8.658,2.836-10.906c-0.796,0.242-1.801,1.142-2.335,1.767c0.122-3.988,4.99-7.625,6.582-9.014 c-0.832,0.08-1.664,0.338-2.497,0.661c2.391-3.877,10.932-3.627,14.446-3.473c-1.377-0.463-2.492-0.671-3.546-0.869 c2.879-0.05,6.594,0.063,8.638-1.214c0.575,0.716,1.813,2.029,2.918,2.121c-2.018-2.27-4.295-5.951-4.625-8.643 c1.032,2.607,4.876,8.08,8.33,8.659c0.576,0.096,0.909-0.086,1.592,0.147c0.552,0.188,1.175,0.651,1.237,1.042 c0.14,0.864-0.017,2.569,1.806,2.498c0.089,1.156,0.799,1.049,1.747,0.987c0.101,0.402,0.074,0.512,0.377,0.833 C68.862,36.722,69.735,37.63,69.796,38.463z M63.569,32.761c-0.202-0.159-0.771-0.347-1.531-0.735 c0.291,1.082,1.035,1.785,1.737,1.826C63.851,33.439,63.719,32.88,63.569,32.761z M44.93,61.898 c-0.698,0.074-0.222-1.335-0.719-1.728c-0.247,1.653-0.139,3.249,0.192,4.834c0.068-1.961,1.694-0.492,3.39-0.551 c0.523-0.018,1.105-0.394,1.753-0.282c0.112,0.02,0.566,0.271,0.764,0.013c1.126-1.462,1.725-1.416,3.154-0.281 c-0.505-1.377-2.558-1.81-3.678-0.983c-0.593,0.507-1.125,0.395-1.862,0.324c-0.444-0.043-0.736,0.038-0.743-0.244 c-0.005-0.234,0.41-0.572,0.618-0.638c1.004-0.321,2.041-0.838,2.462-1.88c0.223-0.485,0.152-1.034,0.347-1.191 c0.302-0.246,0.95-0.065,1.733,0.363c-0.335-0.432-1.022-0.789-1.696-0.812c-1.018-0.033-1.85,0.657-1.846,0.773 c0.007,0.19,0.365,0.205,0.359,0.439c0,0.469-2.348,2.084-2.497,1.884c-0.179-0.243,1.276-1.639,1.235-2.543 c-0.017-0.365-0.87-0.256-0.931-0.567c-0.11-0.569,0.969-0.906,1.713-1.017c-1.379-0.066-2.849,0.237-2.93,1.278 c-0.071,0.906,0.67,0.627,0.623,0.95C46.264,60.797,45.746,61.811,44.93,61.898z M67.318,58.271 c-0.343,0.164-0.211,0.605,0.204,0.601c0.653-0.006,0.888-0.437,1.275-0.503C68.103,58.311,67.529,58.17,67.318,58.271z M54.156,28.506c-0.966-0.814-2.865-2.717-3.859-3.611c0.38,0.787,2.007,3.936,2.812,3.936 C53.484,28.831,53.82,28.669,54.156,28.506z M44.359,44.428c0,0.896,3.182,1.006,4.303,1.013c2.397,0.013,8.069-0.485,11.993-4.622 c-3.012,2.567-7.412,3.741-12.763,3.69C46.461,44.494,44.371,43.879,44.359,44.428z M51.711,50.516 c-2.876,0-7.441-0.749-9.335-3.338c-0.098-0.133-0.985-1.341-1.176-0.715C40.958,47.255,44.551,51.466,51.711,50.516z M67.96,54.375c0.281-0.112,0.459-0.466,0.6-0.769c-0.468,0.376-0.805,0.159-0.941,0.46C67.503,54.322,67.796,54.441,67.96,54.375z M62.366,51.535c-0.775-2.717-4.335-4.56-6.702-4.448c1.958,0.713,3.787,1.624,3.881,2.364c0.098,0.768-1.693,1.702-3.207,0.744 c1.058,1.527,3.12,1.624,3.209,1.494c0.084-0.122-0.209-0.575-0.082-0.813C59.781,50.283,62.047,51.112,62.366,51.535z"/><g><path fill="#1f212b" d="M50,90.001c-0.125,0-0.25-0.023-0.369-0.07C27.979,81.332,17,59.348,17,24.589 c0-0.342,0.174-0.659,0.462-0.843C33.833,13.293,47.572,10.001,50,10.001s16.167,3.292,32.538,13.745 C82.826,23.93,83,24.247,83,24.589c0,34.759-10.979,56.743-32.631,65.342C50.25,89.978,50.125,90.001,50,90.001z M19.001,25.138 C19.114,58.477,29.542,79.598,50,87.923c20.458-8.325,30.886-29.446,30.999-62.785C64.361,14.619,51.288,12.001,50,12.001 S35.639,14.619,19.001,25.138z"/><path fill="#1f212b" d="M49.972,84.621c-0.069,0-0.138-0.015-0.203-0.043c-7.256-3.223-12.927-8.064-17.334-14.803 C25.804,59.641,22.293,45.276,22,27.082c-0.003-0.177,0.088-0.343,0.24-0.435c14.239-8.666,25.624-11.42,27.679-11.637 c0.035-0.004,0.07-0.004,0.105,0c1.521,0.161,10.167,2.132,21.709,8.231c0.244,0.129,0.338,0.432,0.208,0.676 c-0.128,0.244-0.432,0.337-0.675,0.209c-11.274-5.959-19.674-7.921-21.295-8.116c-2.134,0.252-13.119,2.961-26.966,11.342 c0.322,17.866,3.775,31.954,10.266,41.876c4.258,6.509,9.723,11.203,16.701,14.345c6.978-3.142,12.442-7.836,16.7-14.345 c4.392-6.713,7.422-15.395,9.007-25.804c0.041-0.272,0.296-0.463,0.569-0.419c0.273,0.041,0.46,0.297,0.419,0.569 c-1.606,10.552-4.688,19.367-9.159,26.2c-4.408,6.738-10.078,11.58-17.334,14.803C50.11,84.606,50.041,84.621,49.972,84.621z"/><path fill="#1f212b" d="M77.333,32c-0.008,0-0.016,0-0.024-0.001c-0.276-0.013-0.489-0.247-0.476-0.523l0.051-0.996 c0.011-0.275,0.241-0.502,0.52-0.479c0.276,0.012,0.491,0.244,0.479,0.521l-0.051,1.004C77.819,31.792,77.598,32,77.333,32z"/><path fill="#1f212b" d="M76.705,40c-0.019,0-0.038-0.001-0.057-0.003c-0.274-0.031-0.472-0.279-0.441-0.554 c0.177-1.559,0.329-3.234,0.452-4.979c0.02-0.275,0.249-0.482,0.534-0.464c0.275,0.02,0.483,0.259,0.463,0.534 c-0.124,1.759-0.277,3.448-0.455,5.021C77.172,39.812,76.956,40,76.705,40z"/></g></svg>