<?xml version="1.0" encoding="UTF-8" standalone="no"?>
<!DOCTYPE svg PUBLIC "-//W3C//DTD SVG 1.1//EN" "http://www.w3.org/Graphics/SVG/1.1/DTD/svg11.dtd">
<!-- Created with Vectornator (http://vectornator.io/) -->
<svg height="100%" stroke-miterlimit="10" style="fill-rule:nonzero;clip-rule:evenodd;stroke-linecap:round;stroke-linejoin:round;" version="1.1" viewBox="0 0 1024 1024" width="100%" xml:space="preserve" xmlns="http://www.w3.org/2000/svg" xmlns:vectornator="http://vectornator.io" xmlns:xlink="http://www.w3.org/1999/xlink">
<defs/>
<clipPath id="ArtboardFrame">
<rect height="1024" width="1024" x="0" y="0"/>
</clipPath>
<g clip-path="url(#ArtboardFrame)" id="Layer-1" vectornator:layerName="Layer 1">
<g opacity="1">
<path d="M-7.08191 338.973L1031.08 338.973L1031.08 338.973L1031.08 685.027L1031.08 685.027L-7.08191 685.027L-7.08191 685.027L-7.08191 338.973L-7.08191 338.973Z" fill="#ff1744" fill-rule="nonzero" opacity="1" stroke="none"/>
<path d="M251.053 556.598C259.056 563.973 267.967 566.331 277.591 566.936C291.542 567.78 303.913 563.562 314.879 555.127C317.561 553.051 318.404 552.402 318.404 552.402C318.404 552.402 335.209 565.574 342.13 570.894C336.485 577.577 329.867 582.163 322.643 585.861C298.787 598.081 274.001 600.72 248.588 591.571C219.476 581.081 202.497 554.954 204.055 524.155C205.634 492.989 225.791 467.748 255.79 460.481C278.802 454.923 300.863 457.388 320.242 472.139C334.323 482.867 341.893 499.823 345.05 516.866C345.05 516.866 288.925 540.874 262.97 551.602C259.229 553.159 255.509 554.716 251.053 556.598ZM241.039 532.071C261.997 523.398 282.89 514.747 303.783 506.095C296.559 490.48 280.079 484.099 263.425 489.917C247.225 495.562 236.887 514.682 241.039 532.071Z" fill="#ffffff" fill-rule="nonzero" opacity="1" stroke="none"/>
<path d="M578.529 597.086C543.231 596.718 514.595 573.987 507.999 540.852C499.996 500.796 528.957 462.276 569.856 458.491C597.562 455.939 621.18 463.985 638.094 486.608C669.476 528.589 642.852 589.495 590.663 595.94C586.618 596.459 582.574 596.718 578.529 597.086ZM579.264 564.644C599.357 564.687 614.346 549.006 614.475 527.789C614.605 506.809 598.816 490.112 578.81 490.047C558.566 489.982 543.534 505.922 543.599 527.378C543.686 548.228 559.345 564.6 579.264 564.644Z" fill="#ffffff" fill-rule="nonzero" opacity="1" stroke="none"/>
<path d="M871.551 597.086C836.253 596.718 807.617 573.987 801.02 540.852C793.018 500.796 821.978 462.276 862.878 458.491C890.584 455.939 914.202 463.985 931.115 486.608C962.498 528.589 935.874 589.495 883.684 595.94C879.64 596.459 875.595 596.718 871.551 597.086ZM872.286 564.644C892.379 564.687 907.389 549.006 907.497 527.789C907.627 506.809 891.838 490.112 871.832 490.047C851.588 489.982 836.556 505.922 836.621 527.378C836.707 548.228 852.366 564.6 872.286 564.644Z" fill="#ffffff" fill-rule="nonzero" opacity="1" stroke="none"/>
<path d="M455.269 598.232C455.269 596.178 455.29 542.28 455.269 519.008C455.247 502.592 442.183 490.307 424.686 490.22C407.513 490.112 394.774 502.332 394.752 519.029C394.731 542.301 394.752 598.6 394.752 598.6L357.097 598.643L357.249 460.697C357.249 460.697 382.511 460.308 394.493 460.308C394.493 466.018 394.363 478.303 394.363 478.303C394.363 478.303 397.348 475.534 398.278 474.604C423.302 449.213 468.051 453.56 485.462 483.061C490.285 491.237 492.772 500.126 492.816 509.513C492.989 536.851 492.88 598.276 492.88 598.276C492.88 598.276 467.965 598.232 455.269 598.232Z" fill="#ffffff" fill-rule="nonzero" opacity="1" stroke="none"/>
<path d="M645.318 460.265C659.203 460.265 687.796 460.589 687.796 460.589C687.796 460.589 719.763 547.622 720.801 550.326C723.288 543.599 746.928 479.168 753.698 460.049C767.669 460.438 781.555 460.265 796.305 460.265C795.678 462.082 740.893 598.643 740.893 598.643L700.319 598.579C682.973 556.165 645.902 462.082 645.318 460.265Z" fill="#ffffff" fill-rule="nonzero" opacity="1" stroke="none"/>
<path d="M117.649 563.757C119.899 563.757 201.308 563.995 201.308 563.995L201.265 598.189L79.4317 598.276L79.4317 423.67L117.714 423.67C117.714 423.67 117.649 561.399 117.649 563.757Z" fill="#ffffff" fill-rule="nonzero" opacity="1" stroke="none"/>
</g>
</g>
</svg>
